<?xml version="1.0" encoding="UTF-8"?>
<svg id="OBJECTS" xmlns="http://www.w3.org/2000/svg" xmlns:xlink="http://www.w3.org/1999/xlink" viewBox="0 0 293.76 399.6">
  <defs>
    <style>
      .cls-1 {
        fill: url(#linear-gradient-12);
      }

      .cls-1, .cls-2, .cls-3, .cls-4, .cls-5, .cls-6, .cls-7, .cls-8, .cls-9, .cls-10, .cls-11, .cls-12, .cls-13, .cls-14, .cls-15, .cls-16, .cls-17 {
        stroke-width: 0px;
      }

      .cls-2 {
        fill: url(#linear-gradient-17);
      }

      .cls-3 {
        fill: url(#linear-gradient);
        filter: url(#drop-shadow-1);
      }

      .cls-4 {
        fill: url(#linear-gradient-6);
      }

      .cls-5 {
        fill: url(#linear-gradient-15);
      }

      .cls-6 {
        fill: url(#linear-gradient-11);
      }

      .cls-7 {
        fill: url(#linear-gradient-5);
      }

      .cls-8 {
        fill: url(#linear-gradient-13);
      }

      .cls-9 {
        fill: url(#linear-gradient-16);
      }

      .cls-10 {
        fill: url(#linear-gradient-14);
      }

      .cls-11 {
        fill: url(#linear-gradient-2);
      }

      .cls-12 {
        fill: url(#linear-gradient-7);
      }

      .cls-13 {
        fill: url(#linear-gradient-3);
      }

      .cls-14 {
        fill: url(#linear-gradient-9);
      }

      .cls-15 {
        fill: url(#linear-gradient-8);
      }

      .cls-16 {
        fill: url(#linear-gradient-10);
      }

      .cls-17 {
        fill: url(#linear-gradient-4);
      }
    </style>
    <linearGradient id="linear-gradient" x1="341.44" y1="309.43" x2="121.58" y2="189.3" gradientUnits="userSpaceOnUse">
      <stop offset="0" stop-color="#d7ac4c"/>
      <stop offset=".31" stop-color="#6e4e13"/>
      <stop offset=".63" stop-color="#5b3d08"/>
      <stop offset=".98" stop-color="#362300"/>
    </linearGradient>
    <filter id="drop-shadow-1" filterUnits="userSpaceOnUse">
      <feOffset dx="-3" dy="9"/>
      <feGaussianBlur result="blur" stdDeviation="12"/>
      <feFlood flood-color="#2d1200" flood-opacity=".5"/>
      <feComposite in2="blur" operator="in"/>
      <feComposite in="SourceGraphic"/>
    </filter>
    <linearGradient id="linear-gradient-2" x1="39.2" y1="190.8" x2="260.64" y2="190.8" xlink:href="#linear-gradient"/>
    <linearGradient id="linear-gradient-3" x1="216.98" y1="295.99" x2="103.73" y2="234.11" xlink:href="#linear-gradient"/>
    <linearGradient id="linear-gradient-4" x1="26.3" y1="100.3" x2="100.53" y2="174.54" xlink:href="#linear-gradient"/>
    <linearGradient id="linear-gradient-5" x1="31.01" y1="95.99" x2="60.44" y2="125.43" xlink:href="#linear-gradient"/>
    <linearGradient id="linear-gradient-6" x1="48.89" y1="80.58" x2="90.39" y2="84.08" xlink:href="#linear-gradient"/>
    <linearGradient id="linear-gradient-7" x1="174.59" y1="346.95" x2="137.04" y2="326.44" xlink:href="#linear-gradient"/>
    <linearGradient id="linear-gradient-8" x1="250.03" y1="326.87" x2="61.28" y2="126.09" gradientUnits="userSpaceOnUse">
      <stop offset="0" stop-color="#d7ac4c"/>
      <stop offset=".18" stop-color="#ffffb0"/>
      <stop offset=".33" stop-color="#f4d174"/>
      <stop offset=".43" stop-color="#deb04d"/>
      <stop offset=".74" stop-color="#d7ac4c"/>
      <stop offset="1" stop-color="#966424"/>
    </linearGradient>
    <linearGradient id="linear-gradient-9" x1="114.43" y1="142.24" x2="104.3" y2="110.89" gradientUnits="userSpaceOnUse">
      <stop offset="0" stop-color="#d7ac4c" stop-opacity="0"/>
      <stop offset="1" stop-color="#5b3d08"/>
    </linearGradient>
    <linearGradient id="linear-gradient-10" x1="170.06" y1="383.58" x2="116.85" y2="303.35" gradientUnits="userSpaceOnUse">
      <stop offset="0" stop-color="#d7ac4c"/>
      <stop offset=".18" stop-color="#ffffb0"/>
      <stop offset=".33" stop-color="#f4d174"/>
      <stop offset=".43" stop-color="#deb04d"/>
      <stop offset=".71" stop-color="#f6df86"/>
      <stop offset=".85" stop-color="#d7ac4c"/>
      <stop offset="1" stop-color="#966424"/>
    </linearGradient>
    <linearGradient id="linear-gradient-11" x1="147.51" y1="331.92" x2="102.54" y2="-48.75" gradientUnits="userSpaceOnUse">
      <stop offset="0" stop-color="#d7ac4c"/>
      <stop offset=".18" stop-color="#ffffb0"/>
      <stop offset=".41" stop-color="#f4d174"/>
      <stop offset=".51" stop-color="#deb04d"/>
      <stop offset=".71" stop-color="#f6df86"/>
      <stop offset=".85" stop-color="#d7ac4c"/>
      <stop offset="1" stop-color="#966424"/>
    </linearGradient>
    <linearGradient id="linear-gradient-12" x1="137.31" y1="147.02" x2="119.89" y2="97.93" gradientUnits="userSpaceOnUse">
      <stop offset="0" stop-color="#d7ac4c" stop-opacity="0"/>
      <stop offset=".28" stop-color="#a68031" stop-opacity=".39"/>
      <stop offset=".57" stop-color="#7d5b1a" stop-opacity=".72"/>
      <stop offset=".82" stop-color="#63450c" stop-opacity=".93"/>
      <stop offset="1" stop-color="#5b3d08"/>
    </linearGradient>
    <linearGradient id="linear-gradient-13" x1="123.36" y1="20.71" x2="77.36" y2="127.71" xlink:href="#linear-gradient-10"/>
    <linearGradient id="linear-gradient-14" x1="159.95" y1="45.98" x2="128.28" y2="222.06" xlink:href="#linear-gradient-10"/>
    <linearGradient id="linear-gradient-15" x1="161.38" y1="235.32" x2="144.06" y2="94.71" xlink:href="#linear-gradient-10"/>
    <linearGradient id="linear-gradient-16" x1="14.19" y1="206.76" x2="43.32" y2="130.33" xlink:href="#linear-gradient-10"/>
    <linearGradient id="linear-gradient-17" x1="36.87" y1="187.57" x2="252.46" y2="187.57" gradientUnits="userSpaceOnUse">
      <stop offset="0" stop-color="#d7ac4c"/>
      <stop offset=".18" stop-color="#ffffb0"/>
      <stop offset=".33" stop-color="#f4d174"/>
      <stop offset=".43" stop-color="#deb04d"/>
      <stop offset=".71" stop-color="#f6df86"/>
      <stop offset=".85" stop-color="#d7ac4c"/>
      <stop offset="1" stop-color="#966424"/>
    </linearGradient>
  </defs>
  <path class="cls-3" d="M252.3,109.8c-15.03-24.59-50.04-40.48-89.18-40.48-5.08,0-10.08.27-14.98.82-.01-10.38-.01-19.2-.02-25.79,0-7.51-.01-12.11-.01-12.81v-4.46l-3.09,3.21c-.35.35-8.6,8.87-20.76,18.44-12.94,10.21-25.16,17.63-36.33,22.07l-6.81,2.72-5.85,9.74,7.3.75c5.65.58,9.53,1.36,12.2,2.47-.82.4-1.64.81-2.46,1.21-1.02.51-2.04,1.02-3.06,1.56-.72.37-1.43.75-2.14,1.13-.72.38-1.43.77-2.15,1.16-.72.4-1.43.79-2.15,1.2-1.43.81-2.87,1.64-4.31,2.49-2.15,1.28-4.32,2.62-6.51,4.01-5.9,3.08-13.7,5.07-19.91,5.07-1.26,0-2.46-.08-3.55-.24l-3.48-.51-5.85,9.74,1.62,3.12c.22.42,5.24,9.81,17.19,10.55-.01.02-.01.04-.02.06-2.73,9.5-1.58,19.06,3.3,27.16,5.54,9.21,14.03,15.75,26.25,18.54,5.67,1.45,11.72.82,11.72.82l1.28-2.13v183.11l1.05-1.11,2.06-2.18s.16-.17.33-.35h0l.53-.55c.27-.28,27.21-28.07,56.2-39.63l6.8-2.71,5.85-9.74-7.28-.75c-16.41-1.69-17.96-5.02-17.96-13.41h-.02c.02-.16.03-.33.03-.52,0-.36,0-.89.02-1.59,0-1.4.01-3.45.02-6.07,0-5.25.02-12.81.02-22.03.01-5.79.01-12.24.01-19.19,14.76-.5,34.28-2.9,53.18-10.52,20.63-8.31,35.17-20.69,43.22-36.8.12-.22.22-.44.34-.66,1.09-1.51,2.12-3.06,3.07-4.65.29-.48.58-.97.85-1.45.21-.36.4-.72.6-1.08.13-.24.26-.48.38-.72.21-.39.41-.78.61-1.18,12.92-25.21,13.56-48.67,1.84-67.84ZM100.54,160.49c-6.79-4.96-10.46-10.76-10.9-17.24-.26-3.93.68-7.78,2.16-11.26,2.19-2.83,4.11-4.72,4.61-5.2,1.33-1.27,2.71-2.49,4.13-3.64v37.34ZM204.03,174.54c-3.88,5.21-8.57,9.69-13.61,13.18-10.12,7.03-28.46,11.16-42.22,12.21.01-5.36,0-10.84,0-16.38,0-25.58-.02-52.64-.04-76.73,28.98.61,47.17,9.26,55.55,26.39,7.18,14.72,5.97,29.22.32,41.33Z"/>
  <g>
    <path class="cls-11" d="M100.54,160.49c-6.79-4.96-10.46-10.76-10.9-17.24-.26-3.93.68-7.78,2.16-11.26,2.19-2.83,4.11-4.72,4.61-5.2,1.33-1.27,2.71-2.49,4.13-3.64v37.34ZM204.03,174.54c-3.88,5.21-8.57,9.69-13.61,13.18-10.12,7.03-28.46,11.16-42.22,12.21.01-5.36,0-10.84,0-16.38,0-25.58-.02-52.64-.04-76.73,28.98.61,47.17,9.26,55.55,26.39,7.18,14.72,5.97,29.22.32,41.33ZM252.3,109.8c-15.03-24.59-50.04-40.48-89.18-40.48-5.08,0-10.08.27-14.98.82-.01-10.38-.01-19.2-.02-25.79,0-7.51-.01-12.11-.01-12.81v-4.46l-3.09,3.21c-.35.35-8.6,8.87-20.76,18.44-12.94,10.21-25.16,17.63-36.33,22.07l-6.81,2.72,7.3.75c2.03.21,3.82.44,5.42.71-4.03,2.19-7.96,4.05-11.76,5.56l-6.81,2.72,7.3.75c5.65.58,9.53,1.36,12.2,2.47-.92.45-1.84.9-2.76,1.36-.92.46-1.84.93-2.76,1.41-.72.37-1.43.75-2.14,1.13-.72.38-1.43.77-2.15,1.16-.72.4-1.43.79-2.15,1.2-1.43.81-2.87,1.64-4.31,2.49-2.15,1.28-4.32,2.62-6.51,4.01-5.9,3.08-13.7,5.07-19.91,5.07-1.26,0-2.46-.08-3.55-.24l-3.48-.51,1.62,3.12s.02.05.05.09c.02.04.05.09.09.15.04.08.1.18.17.3.05.08.1.16.15.25.12.17.26.37.4.59.02.03.04.06.07.09.29.4.64.88,1.07,1.39.13.18.28.35.45.52.32.36.67.73,1.05,1.1.22.24.45.46.7.67.35.3.71.61,1.11.93.28.23.57.45.88.65-2.3.41-4.55.64-6.63.64-1.26,0-2.46-.08-3.55-.24l-3.48-.51,1.62,3.12c.22.42,5.24,9.81,17.19,10.55-.01.02-.01.04-.02.06-2.73,9.5-1.58,19.06,3.3,27.16,6.22,10.34,17.58,17.2,31.99,19.31.15.03.29.05.43.05h5.55l-4.49-3.26c-4.26-3.09-7.31-6.52-9.1-10.24,0-.01-.01-.01-.01-.02,2,.86,4.11,1.6,6.31,2.22.08.03.16.05.25.07.52.14,1.05.28,1.59.41.57.14,1.15.27,1.74.39.47.1.95.2,1.43.28.71.14,1.43.25,2.15.36.15.03.29.05.43.05h.98v190.72l1.05-1.11,2.06-2.18s.16-.17.33-.35h0l.53-.55c.27-.28,27.21-28.07,56.2-39.63l6.8-2.71-7.28-.75c-2.03-.2-3.83-.44-5.43-.7,1.92-1.04,3.86-2.04,5.83-2.98,1.96-.94,3.94-1.81,5.93-2.6l6.77-2.7s.03,0,.03,0l-7.28-.75c-16.41-1.69-17.96-5.02-17.96-13.41h-.02c.02-.16.03-.33.03-.52,0-.36,0-.89.02-1.59,0-1.4.01-3.45.02-6.07,0-5.25.02-12.81.02-22.03.01-5.79.01-12.24.01-19.19,14.76-.5,34.28-2.9,53.18-10.52,20.63-8.31,35.17-20.69,43.22-36.8.12-.22.22-.44.34-.66,1.09-1.51,2.12-3.06,3.07-4.65.29-.48.58-.97.85-1.45.21-.36.4-.72.6-1.08.13-.24.26-.48.38-.72.21-.39.41-.78.61-1.18,12.92-25.21,13.56-48.67,1.84-67.84Z"/>
    <polygon class="cls-13" points="100.54 123.15 106.39 113.4 106.39 344.78 100.54 354.53 100.54 123.15"/>
    <path class="cls-17" d="M105.11,163.81l-4.57,7.61-1.28,2.13s-6.05.63-11.72-.82c-12.22-2.79-20.71-9.33-26.25-18.54-4.88-8.1-6.03-17.66-3.3-27.16.01-.02.01-.04.02-.06l5.85-9.74s5.21,13.45,5.4,15.14,16.5,20.06,22.49,26.49c3.15,3.38,6.68,4.58,9.32,4.95,2.38.34,4.04,0,4.04,0Z"/>
    <path class="cls-7" d="M63.86,117.23l-5.85,9.74c-11.95-.74-16.97-10.13-17.19-10.55l-1.62-3.12,5.85-9.74,18.81,13.67Z"/>
    <path class="cls-4" d="M106.76,97.04c-.12-.26-9.15-4.19-17.51-7.79,1.84-.96,3.68-1.88,5.53-2.77-2.67-1.11-6.55-1.89-12.21-2.47l-7.3-.75,5.85-9.74,34.14-2.42s-.91,42.32-8.5,25.94Z"/>
    <path class="cls-12" d="M173.37,298.26l-5.85,9.74-6.8,2.71c-28.99,11.56-55.93,39.35-56.2,39.63l-.53.55h0c-.17.18-.33.35-.33.35l-3.11,3.29,5.85-9.74s17.81-27.73,28.87-34.3c10.86-6.44,37.13-12.02,38.08-12.22.02,0,.03,0,.03,0Z"/>
  </g>
  <g>
    <g>
      <g>
        <path class="cls-15" d="M157.66,300.91c-29.19,11.64-56.84,40.05-57.7,40.94-.02,0-.02.02-.02.02V89.29c0-10.13-3.18-13.51-19.59-15.2,13.41-5.34,26.47-14.2,36.77-22.33,12.16-9.58,20.47-18.12,20.94-18.61.02,0,.02-.02.02-.02v252.58c0,10.13,3.18,13.51,19.58,15.2Z"/>
        <polygon class="cls-14" points="99.95 153.54 117.13 153.54 117.13 94.5 99.97 102.55 99.95 153.54"/>
        <path class="cls-16" d="M157.66,300.91c-29.19,11.64-56.84,40.05-57.7,40.94,16.11-26.47,17.16-29.84,17.16-48.42,0,8.02,20.71,14.85,40.54,7.48Z"/>
        <path class="cls-6" d="M157.66,300.91c-19.83,7.36-40.54.54-40.54-7.48V51.76c12.16-9.58,20.47-18.12,20.94-18.61.02,0,.02-.02.02-.02v252.58c0,10.13,3.18,13.51,19.58,15.2Z"/>
        <polygon class="cls-1" points="117.13 157.03 138.07 148.81 138.07 82.29 117.13 94.5 117.13 157.03"/>
        <path class="cls-8" d="M138.07,33.15c-15.66,25.34-20.94,45.16-20.94,45.16-21.74-5.07-36.77-4.22-36.77-4.22,29.2-11.64,56.85-40.05,57.71-40.94Z"/>
      </g>
      <path class="cls-10" d="M240.61,178.44c-17.14,34.29-63.02,46.71-102.52,46.44-7.58-3.67-13.29-6.64-21.69-10.51,9.69-4.14,14.09-6.49,21.32-10.88,14.59-.78,34.64-5.16,45.49-12.69,19.54-13.55,32.7-39.91,19.73-66.51-11.57-23.68-39.32-27.27-59.1-27.44-18.83-.17-37.48,7.55-51.06,20.5-6.44,6.15-25.4,28.88-1.45,46.26,0,0-.02,0-.07-.02-26.84-3.88-40.96-24.76-33.17-46.53-12.79.52-18.06-9.61-18.06-9.61,7.63,1.11,17.87-1.5,24.63-5.05,19.24-12.26,36.89-20.07,57.9-25.64,65.8-17.35,158.92,21.93,118.06,101.67Z"/>
      <path class="cls-5" d="M116.4,214.38c9.69-4.14,14.09-6.49,21.32-10.88,14.59-.78,34.64-5.16,45.49-12.69,19.54-13.55,32.7-39.91,19.73-66.51-11.57-23.68-39.32-27.27-59.1-27.44-18.83-.17-37.48,7.55-51.06,20.5-6.44,6.15-25.4,28.88-1.45,46.26,0,0-.02,0-.07-.02-1.44-.34-27.66-6.82-21.03-36.97,6.34-28.83,66.71-48.52,104.84-39.39,35.78,8.56,51.61,28.6,54.46,49.94,1.64,12.26,1.24,41.22-32.22,63.27-27.64,18.22-80.9,13.92-80.9,13.92Z"/>
      <path class="cls-9" d="M63.27,109.52s-3.18,2.21-5.19,7.55c-12.79.52-18.06-9.61-18.06-9.61,13.66,5.86,23.24,2.06,23.24,2.06Z"/>
    </g>
    <path class="cls-2" d="M244.12,111.43c-15.03-24.59-50.04-40.48-89.18-40.48-5.08,0-10.08.27-14.98.82,0-10.38,0-19.2-.02-25.79,0-7.51,0-12.11,0-12.81v-4.46l-3.09,3.21c-.35.35-8.6,8.87-20.76,18.44-12.94,10.21-25.16,17.63-36.33,22.07l-6.81,2.72,7.3.75c11.71,1.2,15.86,3.24,17.26,7.36-11.39,4.63-22.32,10.37-33.69,17.61-5.9,3.08-13.7,5.07-19.91,5.07-1.26,0-2.46-.08-3.55-.24l-3.48-.51,1.62,3.12c.22.42,5.24,9.81,17.19,10.55-2.75,9.52-1.61,19.1,3.28,27.22,6.22,10.34,17.58,17.2,31.99,19.31.15.03.29.05.43.05h5.55l-4.49-3.26c-6.85-4.97-10.54-10.79-10.98-17.3-.87-12.91,11.24-24.88,12.62-26.2,1.33-1.27,2.71-2.49,4.13-3.64v231.38l3.11-3.29s.16-.17.33-.35h0l.53-.55c.27-.28,27.21-28.07,56.2-39.63l6.8-2.71-7.28-.75c-16.41-1.69-17.96-5.02-17.96-13.41h-.02c.02-.16.03-.33.03-.52,0-.36,0-.89.02-1.59,0-1.4,0-3.45.02-6.07,0-5.25.02-12.81.02-22.03,0-8.39,0-18.15,0-28.82,15.17-.05,37.51-1.96,59.03-10.63,20.63-8.31,35.17-20.69,43.22-36.8,12.92-25.21,13.56-48.67,1.84-67.84ZM80.42,74.11c13.41-5.34,26.47-14.21,36.77-22.33,12.16-9.58,20.47-18.12,20.94-18.61,0,1.32,0,16.5.02,38.81-5.48.68-10.83,1.71-16,3.07-8.04,2.13-15.63,4.61-23,7.54-1.75-5.09-6.66-7.24-18.73-8.48ZM240.67,178.46c-16.87,33.74-61.57,46.31-100.64,46.44h-1.8v1.8c0,34.15-.02,59.03-.08,59.03,0,5.07.8,8.45,3.64,10.77s7.74,3.59,15.94,4.43c-29.19,11.64-55.98,39.15-56.84,40.05l-.88.91V113.61c11.09-8.51,24.5-13.7,38.16-14.74.03,31.41.05,69.35.05,102.82,0,.6,0,1.2,0,1.8.59-.03,1.19-.07,1.8-.12,14.34-1.08,32.95-5.39,43.25-12.54,19.54-13.55,32.69-39.92,19.72-66.52-11.57-23.68-39.32-27.27-59.1-27.44h-.6c-1.11,0-2.22.03-3.32.08-.6.03-1.2.07-1.8.11-13.73,1.03-27.08,6.14-38.16,14.31-.61.44-1.21.9-1.8,1.37-1.87,1.45-3.66,3.01-5.37,4.64-6.44,6.15-25.41,28.88-1.46,46.26l-.06-.02c-26.84-3.88-40.96-24.76-33.18-46.53-.32,0-.64.02-.95.02-12.1,0-17.1-9.63-17.1-9.63,1.21.18,2.49.26,3.81.26,6.99,0,15.13-2.33,20.81-5.31,11.29-7.19,22.03-12.86,33.23-17.42.56-.24,1.12-.47,1.68-.68,7.36-2.93,14.93-5.41,22.99-7.54,5.05-1.33,10.25-2.33,15.54-2.99.6-.08,1.21-.15,1.81-.22,4.94-.56,9.95-.83,14.97-.83h0c59.38-.01,120.19,38.46,85.73,105.71ZM140.02,185.18c0-29.08-.03-60.07-.05-86.43,1.1-.05,2.21-.08,3.32-.08h.59c30.12.26,48.93,8.91,57.5,26.43,12.76,26.18-.98,51.66-19.14,64.25-10.12,7.03-28.46,11.16-42.22,12.21,0-5.36,0-10.84,0-16.38Z"/>
  </g>
</svg>